<svg id="Capa_1" data-name="Capa 1" xmlns="http://www.w3.org/2000/svg" viewBox="0 0 7171.78 2423.62"><defs><style>.cls-1{fill:#76d1f8;}.cls-2{fill:#fff;}</style></defs><title>pruebas_color</title><path class="cls-1" d="M3017.24,1645.06c257.58,257.58,638.86,255.89,906.61-11.86,266.06-266,269.45-649,11.87-906.62l-85.53,85.54C3592.61,554.54,3209.63,557.93,2943.57,824c-267.75,267.74-269.44,649-11.86,906.61Zm655.81-262.64c-98.27,98.27-252.49,100-372.82-20.35l-85.53,85.53c-120.33-120.33-118.62-274.54-20.34-372.82,96.59-96.59,252.49-100,372.82,20.35l85.53-85.53C3773,1129.93,3769.65,1285.82,3673.05,1382.42Z"/><path class="cls-2" d="M220.38,1767.8V1346c122.22,64.72,268.41,112.64,407.4,124.63,47.93,4.8,93.47,4.8,136.61,2.38,141.39-9.57,220.48-47.92,220.48-119.81,0-91.06-107.85-136.6-318.74-215.69-290-110.24-476.91-230.07-476.91-546.42S450.45,68.68,843.48,68.68c172.54,0,345.09,33.54,460.13,81.48v405c-103.06-64.72-266-107.86-424.19-107.86S620.6,502.44,620.6,588.72c0,81.49,100.65,136.61,302,218.07,290,115,488.88,237.27,488.88,544,0,318.73-239.64,510.45-668.62,510.45C546.31,1861.26,349.79,1822.92,220.38,1767.8Z"/><path class="cls-2" d="M2235.89,1492.21c134.21,0,263.63-71.91,294.77-95.88V1777.4c-33.54,16.77-165.35,83.86-361.87,83.86-390.63,0-644.66-268.41-644.66-632.68s254-632.68,644.66-632.68c196.52,0,321.13,64.71,354.69,81.49v383.44C2466,1015.31,2343.74,965,2235.89,965c-163,0-280.39,100.66-280.39,263.61S2065.74,1492.21,2235.89,1492.21Z"/><path class="cls-2" d="M4336.76,629.45h385.86l9.58,88.68c2.4,45.54-4.8,76.69-4.8,76.69h4.8c52.72-112.63,206.1-198.92,373.87-198.92,304.33,0,558.37,230.07,558.37,632.68,0,405-254,632.68-548.8,632.68-165.37,0-292.38-69.49-354.67-155.75h-4.8s7.18,31.14,7.18,100.64v548.79H4336.76Zm927.46,599.13c0-167.75-105.45-278-242-278-127,0-242.06,98.26-242.06,278s115,278,242.06,278C5158.77,1506.59,5264.22,1398.75,5264.22,1228.58Z"/><path class="cls-2" d="M6982.56,1156.69c0,69.49-9.58,136.61-12,158.18H6239.64c16.77,127,124.61,191.72,287.58,191.72,174.95,0,357.08-52.72,405-76.69V1787c-64.72,31.15-225.27,74.29-445.76,74.29-429,0-690.2-266-690.2-632.68,0-364.27,268.41-632.68,620.71-632.68C6795.63,595.9,6982.56,859.51,6982.56,1156.69ZM6412.19,924.23c-112.63,0-172.55,86.28-174.95,194.12H6580C6582.34,1010.51,6527.22,924.23,6412.19,924.23Z"/></svg>